<svg width="240" height="80" viewBox="0 0 240 80" fill="none" xmlns="http://www.w3.org/2000/svg">
  <defs>
    <linearGradient id="g1" x1="0" y1="0" x2="240" y2="80" gradientUnits="userSpaceOnUse">
      <stop offset="0" stop-color="#B8FF43"/>
      <stop offset="0.5" stop-color="#7DF9FF"/>
      <stop offset="1" stop-color="#C084FC"/>
    </linearGradient>
    <linearGradient id="g2" x1="10" y1="10" x2="70" y2="70" gradientUnits="userSpaceOnUse">
      <stop offset="0" stop-color="#B8FF43"/>
      <stop offset="1" stop-color="#89FF92"/>
    </linearGradient>
    <linearGradient id="g3" x1="0" y1="0" x2="240" y2="0" gradientUnits="userSpaceOnUse">
      <stop offset="0" stop-color="#B8FF43"/>
      <stop offset="0.6" stop-color="#7DF9FF"/>
      <stop offset="1" stop-color="#C084FC"/>
    </linearGradient>
    <filter id="glow" x="-20%" y="-40%" width="140%" height="180%" color-interpolation-filters="sRGB">
      <feDropShadow dx="0" dy="0" stdDeviation="5" flood-color="#B8FF43" flood-opacity="0.55"/>
      <feDropShadow dx="0" dy="0" stdDeviation="10" flood-color="#7DF9FF" flood-opacity="0.2"/>
    </filter>
    <filter id="iconGlow" x="-30%" y="-30%" width="160%" height="160%" color-interpolation-filters="sRGB">
      <feDropShadow dx="0" dy="0" stdDeviation="3" flood-color="#B8FF43" flood-opacity="0.6"/>
    </filter>
  </defs>

  <rect x="1" y="1" width="238" height="78" rx="14" fill="#070B08" stroke="url(#g3)" stroke-width="1.5" stroke-opacity="0.4"/>
  <rect x="10" y="10" width="60" height="60" rx="12" fill="#0D1610"/>
  <rect x="10" y="10" width="60" height="60" rx="12" fill="none" stroke="url(#g2)" stroke-width="1" stroke-opacity="0.3"/>

  <g filter="url(#iconGlow)">
    <path d="M22 48V24H30V41H42V48H22Z" fill="url(#g2)"/>
    <path d="M45 48V24H53V48H45Z" fill="url(#g2)"/>
    <path d="M57 48V24H65V48H57Z" fill="url(#g2)"/>
  </g>

  <g filter="url(#glow)">
    <text x="82" y="51" font-family="Inter, Arial, sans-serif" font-size="28" font-weight="900" letter-spacing="-1" fill="#EAF7ED">lolance</text>
    <text x="175" y="51" font-family="Inter, Arial, sans-serif" font-size="28" font-weight="900" letter-spacing="-1" fill="url(#g1)">izi</text>
  </g>
</svg>
